<mxfile host="app.diagrams.net" agent="Mozilla/5.0 (X11; Linux x86_64; rv:142.0) Gecko/20100101 Firefox/142.0" version="28.1.1">
  <diagram name="Page-1" id="rD1pq2RR0rX45yfyD-T1">
    <mxGraphModel dx="1426" dy="797" grid="0" gridSize="10" guides="1" tooltips="1" connect="1" arrows="1" fold="1" page="1" pageScale="1" pageWidth="850" pageHeight="1100" background="#ffffff" math="0" shadow="0">
      <root>
        <mxCell id="0" />
        <mxCell id="1" parent="0" />
        <mxCell id="uSHFyEGqvVHMhk2APjxr-87" value="" style="ellipse;whiteSpace=wrap;html=1;aspect=fixed;" vertex="1" parent="1">
          <mxGeometry x="280" y="200" width="40" height="40" as="geometry" />
        </mxCell>
        <mxCell id="uSHFyEGqvVHMhk2APjxr-88" value="Receive an integer number n" style="rounded=1;whiteSpace=wrap;html=1;" vertex="1" parent="1">
          <mxGeometry x="230" y="280" width="140" height="50" as="geometry" />
        </mxCell>
        <mxCell id="uSHFyEGqvVHMhk2APjxr-89" value="Initialise two variables:&lt;div&gt;sum = 0&lt;/div&gt;&lt;div&gt;res = &quot;&quot;&lt;/div&gt;" style="rounded=1;whiteSpace=wrap;html=1;" vertex="1" parent="1">
          <mxGeometry x="230" y="360" width="140" height="50" as="geometry" />
        </mxCell>
        <mxCell id="uSHFyEGqvVHMhk2APjxr-90" value="" style="endArrow=classic;html=1;rounded=0;exitX=0.5;exitY=1;exitDx=0;exitDy=0;entryX=0.5;entryY=0;entryDx=0;entryDy=0;" edge="1" parent="1" source="uSHFyEGqvVHMhk2APjxr-87" target="uSHFyEGqvVHMhk2APjxr-88">
          <mxGeometry width="50" height="50" relative="1" as="geometry">
            <mxPoint x="390" y="450" as="sourcePoint" />
            <mxPoint x="440" y="400" as="targetPoint" />
          </mxGeometry>
        </mxCell>
        <mxCell id="uSHFyEGqvVHMhk2APjxr-91" value="" style="endArrow=classic;html=1;rounded=0;exitX=0.5;exitY=1;exitDx=0;exitDy=0;entryX=0.5;entryY=0;entryDx=0;entryDy=0;" edge="1" parent="1" source="uSHFyEGqvVHMhk2APjxr-88" target="uSHFyEGqvVHMhk2APjxr-89">
          <mxGeometry width="50" height="50" relative="1" as="geometry">
            <mxPoint x="310" y="250" as="sourcePoint" />
            <mxPoint x="310" y="290" as="targetPoint" />
          </mxGeometry>
        </mxCell>
        <mxCell id="uSHFyEGqvVHMhk2APjxr-92" value="" style="endArrow=classic;html=1;rounded=0;exitX=0.5;exitY=1;exitDx=0;exitDy=0;entryX=0.5;entryY=0;entryDx=0;entryDy=0;" edge="1" parent="1" source="uSHFyEGqvVHMhk2APjxr-89">
          <mxGeometry width="50" height="50" relative="1" as="geometry">
            <mxPoint x="310" y="340" as="sourcePoint" />
            <mxPoint x="300" y="440" as="targetPoint" />
          </mxGeometry>
        </mxCell>
        <mxCell id="uSHFyEGqvVHMhk2APjxr-93" value="n greater&amp;nbsp;&lt;div&gt;than 0?&lt;/div&gt;" style="rhombus;whiteSpace=wrap;html=1;fontSize=10;" vertex="1" parent="1">
          <mxGeometry x="267.5" y="440" width="65" height="60" as="geometry" />
        </mxCell>
        <mxCell id="uSHFyEGqvVHMhk2APjxr-94" value="" style="endArrow=classic;html=1;rounded=0;entryX=0.5;entryY=0;entryDx=0;entryDy=0;" edge="1" parent="1" target="uSHFyEGqvVHMhk2APjxr-96">
          <mxGeometry width="50" height="50" relative="1" as="geometry">
            <mxPoint x="300" y="500" as="sourcePoint" />
            <mxPoint x="299.66" y="520" as="targetPoint" />
          </mxGeometry>
        </mxCell>
        <mxCell id="uSHFyEGqvVHMhk2APjxr-95" value="Yes" style="edgeLabel;html=1;align=center;verticalAlign=middle;resizable=0;points=[];" vertex="1" connectable="0" parent="uSHFyEGqvVHMhk2APjxr-94">
          <mxGeometry x="-0.299" y="-1" relative="1" as="geometry">
            <mxPoint as="offset" />
          </mxGeometry>
        </mxCell>
        <mxCell id="uSHFyEGqvVHMhk2APjxr-96" value="sum += n % 10&lt;div&gt;n = n //10&lt;/div&gt;" style="rounded=1;whiteSpace=wrap;html=1;" vertex="1" parent="1">
          <mxGeometry x="230" y="530" width="140" height="50" as="geometry" />
        </mxCell>
        <mxCell id="uSHFyEGqvVHMhk2APjxr-97" value="" style="endArrow=classic;html=1;rounded=0;exitX=0;exitY=0.5;exitDx=0;exitDy=0;" edge="1" parent="1" source="uSHFyEGqvVHMhk2APjxr-96">
          <mxGeometry width="50" height="50" relative="1" as="geometry">
            <mxPoint x="310" y="420" as="sourcePoint" />
            <mxPoint x="300" y="420" as="targetPoint" />
            <Array as="points">
              <mxPoint x="210" y="555" />
              <mxPoint x="210" y="420" />
            </Array>
          </mxGeometry>
        </mxCell>
        <mxCell id="uSHFyEGqvVHMhk2APjxr-98" value="" style="endArrow=classic;html=1;rounded=0;exitX=1;exitY=0.5;exitDx=0;exitDy=0;entryX=0;entryY=0.5;entryDx=0;entryDy=0;" edge="1" parent="1" source="uSHFyEGqvVHMhk2APjxr-93">
          <mxGeometry width="50" height="50" relative="1" as="geometry">
            <mxPoint x="413" y="440" as="sourcePoint" />
            <mxPoint x="430" y="470" as="targetPoint" />
          </mxGeometry>
        </mxCell>
        <mxCell id="uSHFyEGqvVHMhk2APjxr-99" value="No" style="edgeLabel;html=1;align=center;verticalAlign=middle;resizable=0;points=[];" vertex="1" connectable="0" parent="uSHFyEGqvVHMhk2APjxr-98">
          <mxGeometry x="-0.4154" relative="1" as="geometry">
            <mxPoint as="offset" />
          </mxGeometry>
        </mxCell>
        <mxCell id="uSHFyEGqvVHMhk2APjxr-100" value="sum greater&lt;div&gt;than 0?&lt;/div&gt;" style="rhombus;whiteSpace=wrap;html=1;fontSize=10;" vertex="1" parent="1">
          <mxGeometry x="430" y="440" width="65" height="60" as="geometry" />
        </mxCell>
        <mxCell id="uSHFyEGqvVHMhk2APjxr-101" style="edgeStyle=orthogonalEdgeStyle;rounded=0;orthogonalLoop=1;jettySize=auto;html=1;exitX=0;exitY=0.5;exitDx=0;exitDy=0;" edge="1" parent="1" source="uSHFyEGqvVHMhk2APjxr-102">
          <mxGeometry relative="1" as="geometry">
            <mxPoint x="380" y="470" as="targetPoint" />
            <Array as="points">
              <mxPoint x="380" y="555" />
            </Array>
          </mxGeometry>
        </mxCell>
        <mxCell id="uSHFyEGqvVHMhk2APjxr-102" value="r = sum % 2&lt;div&gt;sum //= 10&lt;/div&gt;&lt;div&gt;res = str(r) + res&lt;/div&gt;" style="rounded=1;whiteSpace=wrap;html=1;" vertex="1" parent="1">
          <mxGeometry x="392.5" y="530" width="140" height="50" as="geometry" />
        </mxCell>
        <mxCell id="uSHFyEGqvVHMhk2APjxr-103" value="" style="endArrow=classic;html=1;rounded=0;entryX=0.5;entryY=0;entryDx=0;entryDy=0;exitX=0.5;exitY=1;exitDx=0;exitDy=0;" edge="1" parent="1" source="uSHFyEGqvVHMhk2APjxr-100" target="uSHFyEGqvVHMhk2APjxr-102">
          <mxGeometry width="50" height="50" relative="1" as="geometry">
            <mxPoint x="310" y="510" as="sourcePoint" />
            <mxPoint x="310" y="540" as="targetPoint" />
          </mxGeometry>
        </mxCell>
        <mxCell id="uSHFyEGqvVHMhk2APjxr-104" value="Yes" style="edgeLabel;html=1;align=center;verticalAlign=middle;resizable=0;points=[];" vertex="1" connectable="0" parent="uSHFyEGqvVHMhk2APjxr-103">
          <mxGeometry x="-0.299" y="-1" relative="1" as="geometry">
            <mxPoint as="offset" />
          </mxGeometry>
        </mxCell>
        <mxCell id="uSHFyEGqvVHMhk2APjxr-105" value="" style="endArrow=classic;html=1;rounded=0;exitX=1;exitY=0.5;exitDx=0;exitDy=0;entryX=0;entryY=0.5;entryDx=0;entryDy=0;" edge="1" parent="1" source="uSHFyEGqvVHMhk2APjxr-100" target="uSHFyEGqvVHMhk2APjxr-107">
          <mxGeometry width="50" height="50" relative="1" as="geometry">
            <mxPoint x="495" y="460" as="sourcePoint" />
            <mxPoint x="580" y="470" as="targetPoint" />
          </mxGeometry>
        </mxCell>
        <mxCell id="uSHFyEGqvVHMhk2APjxr-106" value="No" style="edgeLabel;html=1;align=center;verticalAlign=middle;resizable=0;points=[];" vertex="1" connectable="0" parent="uSHFyEGqvVHMhk2APjxr-105">
          <mxGeometry x="-0.4154" relative="1" as="geometry">
            <mxPoint as="offset" />
          </mxGeometry>
        </mxCell>
        <mxCell id="uSHFyEGqvVHMhk2APjxr-107" value="Return the res variable" style="rounded=1;whiteSpace=wrap;html=1;" vertex="1" parent="1">
          <mxGeometry x="550" y="445" width="140" height="50" as="geometry" />
        </mxCell>
        <mxCell id="uSHFyEGqvVHMhk2APjxr-108" value="" style="ellipse;whiteSpace=wrap;html=1;aspect=fixed;spacing=2;strokeWidth=3;" vertex="1" parent="1">
          <mxGeometry x="720" y="450" width="40" height="40" as="geometry" />
        </mxCell>
        <mxCell id="uSHFyEGqvVHMhk2APjxr-109" value="" style="endArrow=classic;html=1;rounded=0;exitX=1;exitY=0.5;exitDx=0;exitDy=0;entryX=0;entryY=0.5;entryDx=0;entryDy=0;" edge="1" parent="1" source="uSHFyEGqvVHMhk2APjxr-107" target="uSHFyEGqvVHMhk2APjxr-108">
          <mxGeometry width="50" height="50" relative="1" as="geometry">
            <mxPoint x="310" y="340" as="sourcePoint" />
            <mxPoint x="310" y="370" as="targetPoint" />
          </mxGeometry>
        </mxCell>
      </root>
    </mxGraphModel>
  </diagram>
</mxfile>
